<svg xmlns="http://www.w3.org/2000/svg" xmlns:xlink="http://www.w3.org/1999/xlink" width="18" height="18" viewBox="0 0 18 18"><defs><clipPath id="a"><rect width="18" height="18" fill="#111"/></clipPath></defs><g clip-path="url(#a)"><path d="M9,1.622c2.4,0,2.688.009,3.637.052a4.979,4.979,0,0,1,1.671.31,2.789,2.789,0,0,1,1.035.673,2.789,2.789,0,0,1,.673,1.035,4.98,4.98,0,0,1,.31,1.671c.043.949.052,1.234.052,3.637s-.009,2.688-.052,3.637a4.98,4.98,0,0,1-.31,1.671,2.981,2.981,0,0,1-1.708,1.708,4.979,4.979,0,0,1-1.671.31c-.949.043-1.233.052-3.637.052s-2.688-.009-3.637-.052a4.98,4.98,0,0,1-1.671-.31,2.789,2.789,0,0,1-1.035-.673,2.789,2.789,0,0,1-.673-1.035,4.981,4.981,0,0,1-.31-1.671C1.63,11.688,1.621,11.4,1.621,9s.009-2.688.052-3.637a4.981,4.981,0,0,1,.31-1.671,2.789,2.789,0,0,1,.673-1.035,2.789,2.789,0,0,1,1.035-.673,4.98,4.98,0,0,1,1.671-.31C6.311,1.631,6.6,1.622,9,1.622M9,0C6.555,0,6.248.01,5.288.054A6.607,6.607,0,0,0,3.1.472,4.412,4.412,0,0,0,1.51,1.511,4.412,4.412,0,0,0,.472,3.1,6.606,6.606,0,0,0,.053,5.289C.009,6.249,0,6.556,0,9s.01,2.751.054,3.711A6.606,6.606,0,0,0,.472,14.9,4.412,4.412,0,0,0,1.51,16.489,4.412,4.412,0,0,0,3.1,17.528a6.607,6.607,0,0,0,2.185.418C6.248,17.99,6.555,18,9,18s2.751-.01,3.711-.054a6.606,6.606,0,0,0,2.185-.418A4.6,4.6,0,0,0,17.527,14.9a6.606,6.606,0,0,0,.418-2.185C17.989,11.751,18,11.444,18,9s-.01-2.751-.054-3.711A6.606,6.606,0,0,0,17.527,3.1a4.412,4.412,0,0,0-1.038-1.594A4.412,4.412,0,0,0,14.894.472,6.606,6.606,0,0,0,12.71.054C11.75.01,11.443,0,9,0" transform="translate(0.001 0)" fill="#111"/><path d="M127.177,122.556a4.622,4.622,0,1,0,4.622,4.622,4.622,4.622,0,0,0-4.622-4.622m0,7.622a3,3,0,1,1,3-3,3,3,0,0,1-3,3" transform="translate(-118.177 -118.178)" fill="#111"/><path d="M358.326,88.295a1.08,1.08,0,1,1-1.08-1.08,1.08,1.08,0,0,1,1.08,1.08" transform="translate(-343.442 -84.099)" fill="#111"/></g></svg>